<svg viewBox="0 0 192 192" fill="none" xmlns="http://www.w3.org/2000/svg">
<mask id="mask0_7042_64" style="mask-type:luminance" maskUnits="userSpaceOnUse" x="102" y="93" width="90" height="75">
<path d="M178.377 142.555C181.144 139.59 183.305 136.046 184.654 132.233C186.483 128.045 187.428 123.244 186.536 118.751C186.164 116.879 185.528 115.159 184.612 113.53C184.035 111.97 183.294 110.481 182.436 109.039C180.255 105.374 177.121 102.415 173.581 100.05C165.719 94.7968 155.951 93.3441 146.656 93.3379C140.576 93.3345 134.325 93.6862 128.404 95.2033C128.307 95.8423 124.703 109.233 116.295 116.45C114.733 117.864 103.301 123.798 102.957 123.852C102.839 126.09 103.102 128.283 103.745 130.436C104.967 134.526 107.876 137.966 111.17 140.601C118.137 146.174 126.752 149.62 135.497 151.294C136.911 151.748 153.042 154 159.468 152.423C160.585 152.408 163.93 151.926 164.065 151.885C172.274 157.017 189.603 167.389 190.04 167.248C190.837 167.01 191.499 166.401 191.976 165.747C192.536 164.979 182.618 149.033 178.377 142.555V142.555Z" fill="white"/>
</mask>
<g mask="url(#mask0_7042_64)">
<path d="M177.603 142.557C180.371 139.592 182.531 136.048 183.88 132.235C185.71 128.047 186.655 123.246 185.762 118.753C185.391 116.881 184.755 115.161 183.838 113.532C183.262 111.972 182.52 110.483 181.662 109.041C179.482 105.376 176.348 102.417 172.807 100.052C164.945 94.7988 155.177 93.346 145.883 93.3399C139.803 93.3364 133.551 93.6881 127.631 95.2053C127.533 95.8442 123.929 109.235 115.522 116.452C113.959 117.866 102.528 123.8 102.184 123.854C102.065 126.092 102.329 128.285 102.972 130.438C104.193 134.528 107.102 137.968 110.396 140.603C117.363 146.176 125.979 149.622 134.723 151.296C136.137 151.75 152.268 154.002 158.694 152.425C159.811 152.41 163.156 151.928 163.292 151.887C171.501 157.019 188.83 167.391 189.267 167.25C190.064 167.012 190.726 166.403 191.203 165.749C191.763 164.981 181.845 149.035 177.603 142.557V142.557Z" fill="#7C1513"/>
<path d="M188.666 115.872C188.571 115.24 186.061 111.641 185.558 111.244C185.435 109.487 182.977 108.473 182.284 106.823C181.37 104.645 178.56 103.215 176.825 101.625C175.164 100.101 173.092 98.9838 171.003 98.1556C168.702 97.2431 169.762 92.8308 167.325 92.427C164.632 91.9807 163.405 90.4923 160.694 90.1475C159.907 89.4277 154.058 91.1258 153.132 91.7072C149.558 91.2314 145.497 93.8379 141.923 93.3621C140.813 93.2147 128.334 93.6411 127.958 94.6894C127.239 96.6885 118.128 112.958 118.013 114.022C117.893 115.122 128.245 113.115 129.322 113.487C130.85 114.015 151.179 115.635 159.619 115.971C166.641 116.928 173.818 117.25 180.895 116.845C182.283 116.766 188.857 117.143 188.666 115.873L188.666 115.872Z" fill="#292B2D"/>
<path d="M192.604 128.421C193.255 127.272 192.793 119.125 192.596 118.138C192.945 115.626 178.034 115.199 176.021 115.053C151.497 113.273 132.087 111.753 132.156 111.749C127.794 111.991 109.926 110.909 105.677 111.749C93.5068 114.156 99.5026 115.072 99.2443 119.064C98.7062 127.374 99.0447 127.665 99.2443 128.318C98.5785 129.874 103.899 130.523 105.547 130.711C126.142 133.063 179.628 134.217 196.429 133.751C198.369 133.698 192.384 129.756 192.604 128.42V128.421ZM116.57 121.197C116.57 121.171 116.569 121.146 116.567 121.12C116.732 121.108 116.896 121.096 117.061 121.083C116.897 121.121 116.734 121.159 116.57 121.198V121.197Z" fill="#FC142C"/>
<path d="M195.184 133.039C187.812 132.771 162.744 132.806 155.369 132.761C152.707 132.603 150.045 132.455 147.385 132.296C142.45 132.001 137.516 131.705 132.581 131.411C123.6 130.874 111.796 130.129 102.812 129.641C101.432 129.566 93.2435 138.593 106.515 140.592C108.084 141.912 109.793 143.073 111.586 144.092C115.54 146.339 121.637 150.709 126.084 151.755C128.414 152.302 189.575 170.332 193.941 168.722C195.946 167.982 196.486 133.087 195.184 133.04V133.039Z" fill="#FCD92C"/>
</g>
<path d="M133.598 65.6441C146.064 100.917 108.645 139.899 61.2167 124.309C57.3066 123.025 53.626 121.319 49.8972 119.602C47.097 118.313 44.5039 117.189 41.3214 117.149C35.2619 117.072 3.89439 137.251 0.00573432 132.163C-0.347873 130.584 15.7305 114.634 26.6073 105.998C26.6237 105.967 26.6411 105.936 26.6595 105.906C14.0045 95.0131 11.0342 74.5215 20.2721 58.5074C27.5246 45.9339 40.2001 37.0555 54.328 33.6759C81.8797 27.0855 124.101 38.7718 133.599 65.6441H133.598ZM131.545 82.3684C131.559 81.9258 131.574 81.3093 131.565 80.8556C131.523 78.8392 131.342 76.7831 130.978 74.7728C130.752 73.5235 130.582 72.849 130.582 72.849C123.323 43.6937 78.3149 32.5029 52.3099 39.5328C38.7724 43.1932 26.515 52.0981 21.3308 65.0378C21.3247 65.053 21.3196 65.0663 21.3144 65.0785C21.2468 65.2555 21.1812 65.4325 21.1166 65.6106C20.9834 65.9839 20.8522 66.3583 20.7312 66.7357C16.3701 80.2889 22.1016 97.5971 31.6244 102.425C36.373 104.972 33.1167 108.378 30.3965 108.435C20.0691 116.634 8.8449 127.25 8.8449 127.25C8.8449 127.25 37.5506 109.386 47.5408 112.253C53.7448 114.033 58.5857 118.118 70.2332 120.649C101.313 127.401 127.169 110.608 130.985 87.8244C131.318 85.8325 131.491 83.9992 131.546 82.3674L131.545 82.3684Z" fill="#292B2D"/>
<path d="M131.561 80.8559C131.57 81.3096 131.555 81.9261 131.541 82.3687C131.486 84.0005 131.313 85.8338 130.98 87.8258C127.164 110.609 101.308 127.403 70.2282 120.651C58.5806 118.119 53.7398 114.035 47.5358 112.254C37.5456 109.388 8.83984 127.251 8.83984 127.251C8.83984 127.251 20.0641 116.635 30.3915 108.436C33.1117 108.38 36.3679 104.974 31.6193 102.427C22.0976 97.5995 16.365 80.2902 20.7262 66.7371C20.8471 66.3596 20.9783 65.9852 21.1116 65.6119C21.1761 65.4338 21.2428 65.2558 21.3094 65.0798C21.3145 65.0666 21.3196 65.0544 21.3258 65.0391C26.51 52.0994 38.7673 43.1935 52.3049 39.5341C78.3109 32.5042 123.317 43.6951 130.577 72.8503C130.577 72.8503 130.748 73.5248 130.973 74.7741C131.336 76.7855 131.517 78.8405 131.56 80.8569L131.561 80.8559ZM113.943 71.7994C113.223 71.0659 111.531 71.1931 111.02 71.7699C110.682 72.3793 110.821 73.5737 111.039 74.2197C111.076 74.3336 111.119 74.4445 111.162 74.5544C111.505 74.3499 113.092 72.1555 113.943 71.7994Z" fill="white"/>
<path d="M111.02 71.7742C111.53 71.1973 113.223 71.0702 113.943 71.8037C113.092 72.1598 111.505 74.3542 111.161 74.5587C111.119 74.4488 111.076 74.3379 111.038 74.224C110.82 73.578 110.682 72.3836 111.02 71.7742Z" fill="white"/>
<path d="M101.365 95.2158C102.854 93.6898 104.433 92.237 105.813 90.6194C107.774 88.3222 109.634 85.9365 111.456 83.5284C113.314 81.0715 115.082 78.5475 116.874 76.0417C117.929 74.5666 118.955 73.0701 119.995 71.5837C120.125 71.6244 120.255 71.6641 120.385 71.7048C120.15 72.5594 119.952 73.4241 119.674 74.2644C119.131 75.9075 118.418 77.5047 118.004 79.1772C117.358 81.7898 116.179 84.1348 114.701 86.3404C113.193 88.5908 111.663 90.8371 109.979 92.9573C108.805 94.4344 107.416 95.7611 106.009 97.0307C104.89 98.041 103.452 98.4815 101.93 98.3004C101.346 98.2312 100.787 97.8599 100.245 97.573C99.8523 97.3654 99.5376 97.0012 99.1348 96.8273C96.76 95.8018 95.9995 93.7315 95.6326 91.4556C95.4348 90.2287 95.3548 88.9682 95.3733 87.725C95.3999 85.9233 95.3958 84.0951 95.7043 82.33C96.2609 79.1508 97.048 76.0102 97.7245 72.8513C98.0228 71.4576 98.2872 70.0567 98.5814 68.5896C97.7389 68.4248 97.2346 68.9549 97.1321 69.5093C96.9179 70.6671 96.0897 71.1167 95.1273 71.6743C95.0207 70.8736 94.9243 70.1482 94.8352 69.4859C93.8317 69.2092 92.8519 68.9406 91.5143 68.5724C90.5632 70.1726 89.3302 71.952 88.3985 73.8738C86.2738 78.2525 84.8962 82.8834 84.0189 87.668C83.7739 89.0028 83.3711 90.3142 82.9581 91.6113C82.4948 93.0631 81.2935 93.7111 79.8494 93.3917C78.1664 93.0193 77.3075 91.7832 77.4264 90.1382C77.5853 87.9305 77.575 85.7107 77.7667 83.5071C77.8928 82.0573 78.2966 80.6331 78.479 79.1854C78.5662 78.4936 78.4278 77.7743 78.396 77.1669C75.9679 78.6858 73.55 80.1793 71.1609 81.7155C70.8903 81.8895 70.715 82.2812 70.6002 82.6088C69.8018 84.8866 68.9972 87.1909 67.3409 89.0008C65.1393 91.4068 62.4447 92.8983 59.087 91.7883C56.9448 91.0802 55.5314 89.306 54.6028 87.3262C54.2544 86.5835 54.5547 85.5408 54.5588 84.6343C54.5598 84.3301 54.5588 84.0259 54.5588 83.5244C53.6117 85.5774 52.8563 87.4656 51.8806 89.2337C51.3179 90.2521 50.4948 91.1891 49.6001 91.9399C49.104 92.356 48.0934 92.6317 47.5317 92.415C46.0507 91.8453 44.5727 91.1179 43.3356 90.1504C42.8282 89.7536 42.8549 88.5816 42.7934 87.7515C42.7093 86.61 42.7718 85.4573 42.7718 84.3098C42.6642 84.2803 42.5566 84.2508 42.449 84.2213C41.791 85.7229 41.1985 87.258 40.4555 88.7169C39.8169 89.9713 39.1394 91.2481 38.2426 92.3214C36.5709 94.3236 33.288 94.1771 31.7475 92.0884C31.4 91.6174 31.2401 90.8829 31.274 90.2847C31.3765 88.4636 31.6665 86.6527 31.7803 84.8327C31.8438 83.8102 31.7014 82.7746 31.6563 81.745C31.645 81.4968 31.6542 81.2475 31.8213 80.9586C31.8725 81.0654 31.9248 81.1733 31.8643 81.0492V76.8627C31.9351 76.8577 32.0048 76.8536 32.0755 76.8485C32.0939 77.1008 32.1134 77.3531 32.1083 77.2911C32.3737 75.061 32.674 72.539 32.9795 69.9773C33.0758 69.9427 33.2152 69.8898 33.3567 69.843C36.8548 68.6985 36.4561 69.4452 36.5453 71.9357C36.6539 74.9613 36.2634 78.0042 36.1025 81.041C36.0103 82.7898 35.9457 84.5397 35.8678 86.2885C35.9836 86.3292 36.0994 86.3699 36.2152 86.4106C36.5125 85.7402 36.7892 85.0596 37.1151 84.4044C37.3632 83.9059 37.7414 83.4633 37.9433 82.9496C38.1852 82.333 38.2826 81.6616 38.4794 81.0247C38.6198 80.573 38.8073 80.1335 38.998 79.7001C39.8292 77.813 40.6666 75.9288 41.5122 74.0477C41.6147 73.8209 41.7612 73.4526 41.9181 73.4353C43.3602 73.2817 44.8371 72.9744 46.2474 73.1535C47.2662 73.2827 47.4261 74.5198 47.4835 75.4486C47.5942 77.2351 47.626 79.0267 47.6527 80.8172C47.6793 82.5325 47.6588 84.2487 47.6588 86.026C48.2113 85.5723 48.7811 84.4786 49.2137 83.3585C49.475 82.683 49.9096 82.0746 50.1863 81.4042C50.2827 81.1712 50.1289 80.8406 50.1105 80.5537C50.1002 80.3919 50.0674 80.1732 50.1535 80.0715C51.2574 78.7713 51.0709 77.1618 51.3261 75.6409C51.6028 73.9877 52.1788 72.3834 52.4638 70.7302C52.7057 69.3303 52.718 67.8907 52.8368 66.4023C53.9551 66.1633 54.6131 66.4359 55.3039 67.5408C56.1515 68.8948 56.3811 70.3751 56.2776 71.9377C56.2407 72.4942 56.2715 73.0558 56.2715 73.9643C56.8044 72.9317 57.1908 72.1829 57.5772 71.4331C57.6398 71.4606 57.7023 71.4881 57.7648 71.5166C57.4686 72.1758 57.1734 72.8351 56.8772 73.4943C56.9418 73.5238 57.0063 73.5543 57.0709 73.5838C57.3774 73.0589 57.6849 72.536 57.9893 72.01C58.3049 71.4647 58.6155 70.9163 58.9886 70.2662C58.6268 70.2144 58.3675 70.1767 58.0385 70.1289C58.4074 68.9111 59.3607 68.4086 60.4215 68.143C62.825 67.5418 65.1434 68.08 67.3348 69.0159C67.9917 69.2967 68.4161 70.1543 68.9019 70.7831C70.3256 72.6255 71.1968 74.6988 71.4427 77.172C72.3437 76.7397 73.179 76.3551 74 75.94C75.3591 75.2523 76.7366 74.592 78.0516 73.828C78.9351 73.3142 79.2672 72.4881 78.8634 71.4738C80.9727 69.546 83.6048 70.5145 83.8672 73.3275C84.2474 72.654 84.6615 71.9968 85.0028 71.305C86.2615 68.7433 87.8881 66.4084 90.2752 64.8407C91.2694 64.1876 92.7966 64.0614 94.0521 64.1418C95.4327 64.2293 96.308 63.507 97.4467 62.9922C97.4611 63.0471 97.4939 63.3218 97.5359 63.3228C98.9329 63.3666 100.64 61.9402 100.972 60.5322C101.753 57.2146 102.561 53.9042 103.346 50.5876C103.436 50.2091 103.447 49.8114 103.509 49.2956C103.947 49.262 104.53 49.0768 105.036 49.1999C107.846 49.8856 108.093 50.1217 107.91 52.9061C107.796 54.6631 107.184 56.3906 106.756 58.1231C106.508 59.1273 106.185 60.1121 105.785 61.4895C107.347 61.1793 108.642 60.9208 109.938 60.6655C110.142 60.6248 110.394 60.5048 110.545 60.579C111.289 60.9442 111.969 61.047 112.744 60.578C112.97 60.4417 113.457 60.7347 113.826 60.8262C114.056 60.8832 114.29 60.9788 114.52 60.9748C115.4 60.9595 116.117 61.1904 116.55 62.0318C116.824 62.5669 116.672 62.8894 116.13 63.0532C114.734 63.4734 113.342 63.9108 111.932 64.2842C109.805 64.8488 107.673 65.4084 105.523 65.8835C104.658 66.0748 104.396 66.6099 104.226 67.3363C103.113 72.0802 101.884 76.8007 100.905 81.5721C100.094 85.5265 99.8349 89.5471 100.573 93.5666C100.659 94.0356 100.835 94.4894 100.971 94.9502C101.102 95.0398 101.232 95.1283 101.363 95.2178L101.365 95.2158ZM65.0747 72.0598C65.208 71.9449 65.3412 71.8299 65.4745 71.715C65.1854 71.2775 64.9692 70.7383 64.5684 70.4565C64.4259 70.3558 63.728 70.7963 63.4727 71.131C62.7051 72.1402 61.8728 73.1474 61.3552 74.2848C60.3907 76.4049 59.294 78.5383 59.6733 81.0024C59.8659 82.2527 60.5147 82.6026 61.715 82.1082C62.6261 81.7328 63.5014 81.2648 64.427 80.9301C65.1906 80.6534 65.7143 80.3879 66.1263 79.515C66.4441 78.8425 66.8602 78.2474 66.8397 77.4844C66.8141 76.5168 66.7926 75.5402 66.6398 74.5879C66.5435 73.9847 66.2678 73.3875 65.9603 72.8493C65.7748 72.5237 65.3761 72.3182 65.0737 72.0588L65.0747 72.0598ZM64.0662 85.6567C64.0242 85.5418 63.9821 85.4258 63.9401 85.3108C63.0095 85.2274 62.0583 85.2366 61.1543 85.0341C60.198 84.8205 59.2879 84.4054 58.0497 83.971C58.1768 85.5794 58.1563 87.0627 58.4515 88.4809C58.6801 89.5817 59.4847 89.8126 60.3723 89.0862C61.6709 88.0241 62.8414 86.8074 64.0662 85.6567Z" fill="#292B2D"/>
</svg>
