<svg width="512" height="512" viewBox="0 0 512 512" fill="none" xmlns="http://www.w3.org/2000/svg">
<g clip-path="url(#clip0_7070_40)">
<path d="M401.555 455.299C391.014 461.471 336.302 509.819 307.692 511.876C279.081 513.933 210.816 489.759 210.816 489.759C210.816 489.759 143.556 488.216 99.3849 471.244C55.2138 454.271 36.6419 425.467 25.5991 415.18C14.5564 404.893 0 375.577 0 375.577C0 375.577 16.0622 356.547 33.6302 345.745C51.1983 334.943 57.2216 326.2 57.2216 326.2C57.2216 326.2 21.5836 213.046 12.5486 171.898C3.51361 130.75 3.51361 105.034 3.51361 105.034C3.51361 105.034 -0.501944 61.315 17.568 47.9422C35.638 34.5694 81.8169 71.0882 81.8169 71.0882L171.163 142.067C171.163 142.067 198.268 125.609 231.396 123.551C264.525 121.493 298.155 132.294 298.155 132.294C298.155 132.294 302.17 120.465 311.707 106.064C321.244 91.6623 337.467 67.3007 346 56.5002C354.533 45.6996 382 0.10921 403.061 0.109375C424.122 0.10954 450.244 108.634 451.248 117.378C452.252 126.122 461.788 245.963 461.788 245.963C461.788 245.963 511.481 267.051 511.983 277.338C512.485 287.626 501.944 363.232 483.874 396.664C465.804 430.096 412.096 449.126 401.555 455.299Z" fill="url(#paint0_linear_7070_40)"/>
<path d="M133.5 358L71 334.5C71 334.5 124.5 375 127 376C129.5 377 133.5 376 133.5 376C133.5 376 137 390 140 395.5C143 401 152.5 405.5 152.5 405.5C152.5 405.5 172.5 409 196.5 407C220.5 405 247.5 398.5 247.5 398.5C247.5 398.5 256.5 391 258 387C259.5 383 264 372.5 266.5 368C269 363.5 277.5 358.5 284.5 358C291.5 357.5 298.5 358 301.5 361C304.5 364 314.5 376 318.5 378.5C322.5 381 323.5 382.5 331.5 383C339.5 383.5 356.5 379 381 371C405.5 363 421 353.5 424.5 348.5C428 343.5 429 322.5 429 322.5L434 314L441.5 256L420 296.5C420 296.5 379.5 308.5 356.5 316.5C333.5 324.5 295.5 342.5 295.5 342.5L266.5 347C266.5 347 242 343.5 219 344.5C196 345.5 133.5 358 133.5 358Z" fill="white"/>
<path d="M312.5 362.5C312.5 362.5 318.503 369.5 322.001 372C325.5 374.5 332.001 375 332.001 375C332.001 375 353.001 375 376.001 365.5C399.001 356 414.001 347.5 414.001 347.5L417.501 342L421.001 328.5V313L418.501 305.5H414.001L388.001 313C388.001 313 353.501 323.5 335.001 331C316.501 338.5 307.501 345.5 307.501 345.5C307.501 345.5 303.501 349.5 305.501 353C307.501 356.5 312.5 362.5 312.5 362.5Z" fill="#FC142C"/>
<path d="M144.498 386.584C144.498 386.584 148.239 393.768 150.998 397.066C153.757 400.364 168.998 400.499 168.998 400.499C168.998 400.499 178.519 402.337 203.168 398.915C227.816 395.492 244.469 391.029 244.469 391.029L249.238 386.584L256.014 374.395L259.496 367.998C259.496 367.998 261.496 362.5 261.496 358.998C261.496 355.497 252 352.498 249.24 352.498C246.481 352.499 224.997 352.498 224.997 352.498C224.997 352.498 204.287 353.882 184.497 356.499C164.707 359.115 146.5 362.5 146.5 362.5C146.5 362.5 139.498 365.998 139.498 370.999C139.497 375.999 144.498 386.584 144.498 386.584Z" fill="#FC142C"/>
</g>
<defs>
<linearGradient id="paint0_linear_7070_40" x1="256" y1="7.00148e-06" x2="328.5" y2="548.5" gradientUnits="userSpaceOnUse">
<stop stop-color="#292B2D"/>
<stop offset="0.35" stop-color="#292B2D"/>
<stop offset="0.35" stop-color="#FC142C"/>
<stop offset="0.68" stop-color="#FC142C"/>
<stop offset="0.68" stop-color="#FCD92C"/>
<stop offset="1" stop-color="#FCD92C"/>
</linearGradient>
<clipPath id="clip0_7070_40">
<rect width="512" height="512" fill="white"/>
</clipPath>
</defs>
</svg>
