<svg viewBox="0 0 512 512" fill="none" xmlns="http://www.w3.org/2000/svg">
<mask id="mask0_7042_45" style="mask-type:luminance" maskUnits="userSpaceOnUse" x="274" y="248" width="238" height="198">
<path d="M475.672 380.147C483.053 372.242 488.814 362.79 492.411 352.624C497.29 341.454 499.81 328.653 497.43 316.671C496.439 311.678 494.743 307.093 492.299 302.748C490.763 298.589 488.784 294.618 486.497 290.773C480.682 281 472.324 273.107 462.883 266.8C441.917 252.793 415.87 248.919 391.085 248.902C374.871 248.893 358.201 249.831 342.413 253.877C342.153 255.581 332.542 291.289 310.122 310.534C305.956 314.305 275.471 330.128 274.554 330.274C274.237 336.242 274.941 342.088 276.656 347.83C279.912 358.737 287.67 367.911 296.454 374.939C315.032 389.8 338.007 398.988 361.326 403.453C365.097 404.663 408.112 410.668 425.249 406.464C428.227 406.422 437.147 405.136 437.508 405.028C459.4 418.714 505.61 446.371 506.775 445.996C508.901 445.362 510.665 443.738 511.938 441.994C513.432 439.947 486.983 397.421 475.672 380.149V380.147Z" fill="white"/>
</mask>
<g mask="url(#mask0_7042_45)">
<path d="M473.606 380.147C480.986 372.242 486.747 362.79 490.345 352.624C495.224 341.454 497.743 328.653 495.364 316.671C494.373 311.678 492.676 307.093 490.232 302.748C488.696 298.589 486.718 294.618 484.431 290.773C478.616 281 470.258 273.107 460.816 266.8C439.851 252.793 413.804 248.919 389.018 248.902C372.805 248.893 356.134 249.831 340.346 253.877C340.087 255.581 330.476 291.289 308.055 310.534C303.889 314.305 273.405 330.128 272.488 330.274C272.171 336.242 272.875 342.088 274.589 347.83C277.846 358.737 285.604 367.911 294.387 374.939C312.966 389.8 335.941 398.988 359.26 403.453C363.03 404.663 406.046 410.668 423.182 406.464C426.161 406.422 435.081 405.136 435.442 405.028C457.334 418.714 503.543 446.371 504.709 445.996C506.834 445.362 508.599 443.738 509.872 441.994C511.365 439.947 484.917 397.421 473.606 380.149V380.147Z" fill="#7C1513"/>
<path d="M503.11 308.991C502.857 307.305 496.164 297.709 494.821 296.65C494.495 291.963 487.94 289.259 486.093 284.859C483.655 279.052 476.16 275.239 471.535 270.998C467.106 266.935 461.58 263.955 456.009 261.747C449.874 259.314 452.701 247.548 446.201 246.471C439.02 245.281 435.749 241.312 428.519 240.392C426.42 238.472 410.823 243.001 408.353 244.551C398.824 243.282 387.994 250.233 378.462 248.964C375.502 248.571 342.226 249.708 341.222 252.504C339.305 257.835 315.01 301.221 314.702 304.056C314.383 306.991 341.989 301.638 344.86 302.63C348.934 304.038 403.146 308.36 425.652 309.254C444.378 311.808 463.516 312.665 482.389 311.587C486.089 311.375 503.62 312.38 503.112 308.994L503.11 308.991Z" fill="#292B2D"/>
<path d="M513.611 342.456C515.348 339.394 514.114 317.668 513.589 315.035C514.519 308.337 474.758 307.198 469.389 306.809C403.991 302.061 352.232 298.01 352.416 297.999C340.785 298.642 293.137 295.757 281.806 297.999C249.351 304.415 265.34 306.86 264.651 317.503C263.217 339.664 264.119 340.441 264.651 342.182C262.876 346.33 277.063 348.063 281.458 348.564C336.379 354.837 479.009 357.913 523.811 356.67C528.983 356.528 513.024 346.017 513.611 342.454V342.456ZM310.854 323.193C310.854 323.123 310.85 323.056 310.846 322.988C311.285 322.955 311.723 322.922 312.161 322.887C311.725 322.99 311.29 323.092 310.854 323.194V323.193Z" fill="#FC142C"/>
<path d="M520.491 354.771C500.833 354.054 433.986 354.147 414.317 354.028C407.221 353.608 400.122 353.211 393.028 352.787C379.868 352.001 366.71 351.213 353.55 350.427C329.601 348.995 298.124 347.01 274.165 345.708C270.486 345.509 248.651 369.579 284.041 374.912C288.226 378.431 292.783 381.526 297.564 384.244C308.107 390.235 324.366 401.888 336.226 404.678C342.438 406.139 505.534 454.218 517.176 449.923C522.525 447.951 523.963 354.898 520.491 354.772V354.771Z" fill="#FCD92C"/>
</g>
<path d="M356.26 175.051C389.504 269.111 289.721 373.063 163.245 331.49C152.817 328.066 143.003 323.517 133.059 318.94C125.592 315.503 118.677 312.505 110.19 312.396C94.0318 312.193 10.385 366.004 0.0152915 352.434C-0.927662 348.223 41.948 305.69 70.9527 282.662C70.9964 282.578 71.0429 282.497 71.0921 282.416C37.3453 253.368 29.4245 198.724 54.0588 156.02C73.3989 122.491 107.2 98.8147 144.875 89.8023C218.346 72.2279 330.937 103.391 356.263 175.051H356.26ZM350.786 219.649C350.824 218.469 350.865 216.825 350.84 215.615C350.728 210.238 350.245 204.755 349.274 199.394C348.673 196.063 348.219 194.264 348.219 194.264C328.86 116.517 208.84 86.6743 139.493 105.421C103.393 115.182 70.7067 138.928 56.8822 173.434C56.8658 173.475 56.8521 173.51 56.8385 173.543C56.6581 174.015 56.4832 174.487 56.311 174.961C55.9557 175.957 55.6058 176.955 55.2833 177.962C43.6535 214.104 58.9376 260.259 84.3317 273.135C96.9946 279.925 88.3112 289.008 81.0573 289.16C53.5176 311.023 23.5864 339.333 23.5864 339.333C23.5864 339.333 100.135 291.697 126.776 299.342C143.32 304.089 156.228 314.982 187.289 321.731C270.167 339.737 339.118 294.955 349.293 234.199C350.182 228.887 350.644 223.998 350.788 219.646L350.786 219.649Z" fill="#292B2D"/>
<path d="M350.827 215.615C350.852 216.825 350.811 218.469 350.772 219.649C350.628 224.001 350.166 228.889 349.277 234.201C339.102 294.958 270.151 339.74 187.272 321.734C156.212 314.985 143.304 304.092 126.759 299.344C100.119 291.699 23.5703 339.336 23.5703 339.336C23.5703 339.336 53.5016 311.026 81.0413 289.163C88.2952 289.014 96.9786 279.931 84.3156 273.137C58.9242 260.265 43.6375 214.107 55.2672 177.965C55.5897 176.958 55.9396 175.96 56.2949 174.964C56.4671 174.49 56.6447 174.015 56.8224 173.545C56.8361 173.51 56.8497 173.478 56.8661 173.437C70.6907 138.931 103.377 115.182 139.477 105.424C208.827 86.6772 328.844 116.52 348.203 194.267C348.203 194.267 348.66 196.066 349.258 199.397C350.226 204.761 350.71 210.241 350.824 215.618L350.827 215.615ZM303.846 191.464C301.925 189.508 297.412 189.848 296.051 191.386C295.149 193.011 295.521 196.196 296.1 197.919C296.201 198.222 296.313 198.518 296.428 198.811C297.344 198.266 301.575 192.414 303.846 191.464Z" fill="white"/>
<path d="M296.05 191.4C297.412 189.862 301.924 189.522 303.846 191.478C301.577 192.428 297.343 198.28 296.428 198.825C296.316 198.532 296.201 198.236 296.1 197.933C295.517 196.21 295.149 193.025 296.05 191.4Z" fill="white"/>
<path d="M270.308 253.908C274.28 249.839 278.489 245.965 282.17 241.651C287.399 235.525 292.36 229.163 297.217 222.742C302.172 216.19 306.887 209.459 311.664 202.777C314.48 198.844 317.215 194.853 319.987 190.889C320.334 190.998 320.681 191.104 321.028 191.212C320.402 193.491 319.872 195.797 319.131 198.038C317.683 202.419 315.783 206.679 314.679 211.139C312.957 218.105 309.811 224.359 305.87 230.24C301.849 236.241 297.769 242.232 293.278 247.885C290.149 251.825 286.445 255.362 282.692 258.748C279.708 261.442 275.873 262.617 271.814 262.134C270.256 261.949 268.767 260.959 267.321 260.194C266.274 259.641 265.435 258.669 264.361 258.205C258.028 255.471 256 249.95 255.022 243.881C254.494 240.609 254.281 237.248 254.33 233.933C254.401 229.128 254.39 224.253 255.213 219.546C256.697 211.068 258.796 202.693 260.6 194.27C261.395 190.553 262.101 186.817 262.885 182.905C260.638 182.466 259.294 183.879 259.02 185.358C258.449 188.445 256.241 189.644 253.674 191.131C253.39 188.996 253.133 187.061 252.895 185.295C250.219 184.557 247.606 183.841 244.04 182.859C241.503 187.126 238.215 191.871 235.731 196.996C230.065 208.673 226.391 221.022 224.052 233.781C223.398 237.34 222.324 240.837 221.223 244.296C219.987 248.168 216.784 249.896 212.933 249.044C208.445 248.051 206.155 244.755 206.472 240.368C206.895 234.481 206.868 228.561 207.379 222.685C207.715 218.819 208.792 215.021 209.279 211.16C209.511 209.316 209.142 207.397 209.057 205.778C202.582 209.828 196.135 213.811 189.764 217.907C189.042 218.371 188.575 219.416 188.269 220.289C186.139 226.364 183.994 232.508 179.577 237.335C173.706 243.751 166.521 247.728 157.567 244.768C151.854 242.88 148.085 238.149 145.609 232.869C144.68 230.889 145.48 228.108 145.491 225.691C145.494 224.88 145.491 224.068 145.491 222.731C142.966 228.206 140.951 233.241 138.349 237.956C136.849 240.672 134.654 243.17 132.268 245.172C130.945 246.282 128.25 247.017 126.753 246.439C122.803 244.92 118.862 242.98 115.563 240.4C114.21 239.342 114.281 236.217 114.117 234.003C113.893 230.959 114.06 227.886 114.06 224.825C113.773 224.747 113.486 224.668 113.199 224.589C111.444 228.594 109.864 232.687 107.883 236.578C106.18 239.923 104.373 243.328 101.982 246.19C97.5237 251.529 88.7693 251.138 84.6613 245.569C83.7347 244.312 83.3083 242.354 83.3985 240.758C83.6719 235.902 84.4453 231.073 84.7487 226.22C84.9182 223.493 84.5383 220.732 84.418 217.986C84.388 217.324 84.4126 216.659 84.8581 215.889C84.9947 216.174 85.1341 216.461 84.9729 216.13V204.967C85.1614 204.953 85.3473 204.942 85.5359 204.929C85.5851 205.602 85.637 206.274 85.6234 206.109C86.3313 200.162 87.1321 193.437 87.9466 186.606C88.2035 186.513 88.5752 186.372 88.9524 186.247C98.2808 183.195 97.2176 185.187 97.4554 191.828C97.7451 199.896 96.7037 208.011 96.2746 216.109C96.0286 220.772 95.8565 225.439 95.6487 230.102C95.9576 230.211 96.2664 230.319 96.5753 230.428C97.3679 228.64 98.1059 226.825 98.975 225.078C99.6365 223.748 100.645 222.568 101.183 221.198C101.828 219.554 102.088 217.764 102.613 216.065C102.987 214.861 103.488 213.689 103.996 212.533C106.213 207.501 108.446 202.476 110.7 197.46C110.974 196.855 111.365 195.873 111.783 195.827C115.628 195.417 119.567 194.598 123.328 195.075C126.045 195.42 126.471 198.719 126.624 201.196C126.919 205.96 127.004 210.737 127.075 215.512C127.146 220.086 127.091 224.663 127.091 229.402C128.565 228.192 130.084 225.276 131.238 222.289C131.935 220.487 133.094 218.865 133.832 217.077C134.088 216.456 133.678 215.574 133.629 214.809C133.602 214.378 133.514 213.795 133.744 213.523C136.688 210.056 136.19 205.764 136.871 201.708C137.609 197.3 139.145 193.022 139.905 188.613C140.55 184.88 140.583 181.041 140.9 177.072C143.881 176.435 145.636 177.162 147.478 180.108C149.739 183.719 150.351 187.666 150.075 191.833C149.977 193.317 150.059 194.815 150.059 197.238C151.48 194.484 152.51 192.487 153.541 190.488C153.707 190.561 153.874 190.634 154.041 190.71C153.251 192.468 152.464 194.226 151.674 195.984C151.846 196.063 152.018 196.144 152.19 196.223C153.008 194.823 153.828 193.429 154.639 192.026C155.481 190.572 156.309 189.11 157.304 187.376C156.339 187.238 155.648 187.137 154.771 187.01C155.754 183.762 158.296 182.422 161.125 181.714C167.535 180.111 173.717 181.546 179.561 184.042C181.313 184.791 182.444 187.078 183.74 188.754C187.536 193.667 189.859 199.196 190.515 205.791C192.918 204.638 195.145 203.613 197.335 202.506C200.959 200.672 204.632 198.911 208.139 196.874C210.495 195.504 211.381 193.301 210.304 190.596C215.929 185.455 222.947 188.038 223.647 195.539C224.661 193.743 225.765 191.991 226.676 190.146C230.032 183.315 234.369 177.089 240.735 172.908C243.386 171.166 247.459 170.83 250.807 171.044C254.489 171.277 256.823 169.351 259.859 167.978C259.898 168.125 259.985 168.857 260.097 168.86C263.822 168.977 268.376 165.173 269.259 161.419C271.341 152.572 273.498 143.744 275.592 134.9C275.829 133.89 275.859 132.83 276.026 131.454C277.193 131.365 278.748 130.871 280.099 131.199C287.59 133.028 288.249 133.657 287.762 141.082C287.456 145.768 285.825 150.374 284.685 154.994C284.023 157.672 283.163 160.298 282.094 163.971C286.259 163.144 289.714 162.455 293.169 161.774C293.713 161.665 294.385 161.345 294.787 161.543C296.771 162.517 298.586 162.791 300.652 161.541C301.254 161.177 302.555 161.958 303.538 162.203C304.151 162.355 304.774 162.61 305.389 162.599C307.734 162.558 309.647 163.174 310.801 165.417C311.533 166.844 311.126 167.704 309.68 168.141C305.957 169.262 302.246 170.428 298.488 171.424C292.813 172.93 287.128 174.422 281.397 175.689C279.09 176.199 278.39 177.626 277.937 179.563C274.968 192.213 271.691 204.801 269.081 217.525C266.919 228.07 266.228 238.792 268.196 249.51C268.425 250.761 268.895 251.971 269.256 253.2C269.606 253.439 269.953 253.675 270.303 253.914L270.308 253.908ZM173.534 192.159C173.889 191.852 174.245 191.546 174.6 191.239C173.829 190.073 173.252 188.635 172.184 187.883C171.804 187.615 169.943 188.789 169.262 189.682C167.215 192.373 164.995 195.059 163.615 198.092C161.043 203.746 158.119 209.435 159.13 216.006C159.644 219.34 161.374 220.273 164.575 218.955C167.004 217.954 169.338 216.706 171.807 215.813C173.843 215.075 175.239 214.367 176.338 212.039C177.185 210.246 178.295 208.659 178.241 206.624C178.172 204.044 178.115 201.44 177.708 198.901C177.451 197.292 176.715 195.699 175.895 194.264C175.401 193.396 174.337 192.848 173.531 192.156L173.534 192.159ZM170.844 228.417C170.732 228.111 170.62 227.801 170.508 227.495C168.027 227.272 165.49 227.297 163.079 226.757C160.529 226.187 158.102 225.08 154.801 223.922C155.14 228.211 155.085 232.167 155.872 235.948C156.482 238.884 158.627 239.5 160.994 237.563C164.457 234.73 167.578 231.486 170.844 228.417Z" fill="#292B2D"/>
</svg>
